<svg width="81" height="34" viewBox="0 0 81 34" fill="none" xmlns="http://www.w3.org/2000/svg">
<g filter="url(#filter0_d_1_281)">
<path d="M20.5 1.5C23.2627 1.5 19.448 2.78434 22.948 6.22012C24.9827 8.21746 26 10.7001 26 13.6681C26 16.6175 25.0293 19.1375 23.088 21.2281C21.1467 23.3001 18.7573 24.3361 15.92 24.3361C13.0827 24.3361 10.6653 23.3095 8.66801 21.2561C6.68935 19.2028 5.70001 16.7575 5.70001 13.9201C5.70001 12.3708 5.98001 10.9241 6.54001 9.58012C7.10001 8.21746 7.84668 7.07879 8.78001 6.16412C9.71335 5.24945 10.7867 4.53079 12 4.00812C13.2133 3.48545 19.212 1.5 20.5 1.5ZM10.656 13.7801C10.656 15.4415 11.188 16.7948 12.252 17.8401C13.3347 18.8668 14.5387 19.3801 15.864 19.3801C17.1893 19.3801 18.384 18.8761 19.448 17.8681C20.512 16.8601 21.044 15.5068 21.044 13.8081C21.044 12.1095 20.5027 10.7468 19.42 9.72012C18.356 8.69346 17.1613 8.18012 15.836 8.18012C14.5107 8.18012 13.316 8.70279 12.252 9.74812C11.188 10.7748 10.656 12.1188 10.656 13.7801Z" fill="black"/>
<path d="M38.0229 3.22412C40.7856 3.22412 43.1843 4.22279 45.2189 6.22012C47.2536 8.21746 48.271 10.7001 48.271 13.6681C48.271 16.6175 47.3003 19.1375 45.359 21.2281C43.4176 23.3001 41.0283 24.3361 38.1909 24.3361C35.3536 24.3361 32.9363 23.3095 30.9389 21.2561C28.9603 19.2028 27.9709 16.7575 27.9709 13.9201C27.9709 12.3708 28.2509 10.9241 28.8109 9.58012C29.3709 8.21746 30.1176 7.07879 31.0509 6.16412C31.9843 5.24945 33.0576 4.53079 34.2709 4.00812C35.4843 3.48545 36.7349 3.22412 38.0229 3.22412ZM32.9269 13.7801C32.9269 15.4415 33.4589 16.7948 34.5229 17.8401C35.6056 18.8668 36.8096 19.3801 38.1349 19.3801C39.4603 19.3801 40.6549 18.8761 41.7189 17.8681C42.7829 16.8601 43.3149 15.5068 43.3149 13.8081C43.3149 12.1095 42.7736 10.7468 41.691 9.72012C40.627 8.69346 39.4323 8.18012 38.1069 8.18012C36.7816 8.18012 35.5869 8.70279 34.5229 9.74812C33.4589 10.7748 32.9269 12.1188 32.9269 13.7801Z" fill="black"/>
<path d="M53.1539 3.44812L58.3339 3.47612C61.0406 3.47612 63.4206 4.45612 65.4739 6.41612C67.5272 8.35745 68.5539 10.7561 68.5539 13.6121C68.5539 16.4495 67.5459 18.8855 65.5299 20.9201C63.5326 22.9548 61.1059 23.9721 58.2499 23.9721H53.1259C51.9872 23.9721 51.2779 23.7388 50.9979 23.2721C50.7739 22.8801 50.6619 22.2828 50.6619 21.4801V5.91212C50.6619 5.46412 50.6712 5.13745 50.6899 4.93212C50.7272 4.72679 50.8206 4.48412 50.9699 4.20412C51.2312 3.70012 51.9592 3.44812 53.1539 3.44812ZM58.3339 19.0161C59.6779 19.0161 60.8912 18.5215 61.9739 17.5321C63.0566 16.5241 63.5979 15.2641 63.5979 13.7521C63.5979 12.2401 63.0659 10.9801 62.0019 9.97212C60.9566 8.94545 59.7246 8.43212 58.3059 8.43212H55.6179V19.0161H58.3339Z" fill="black"/>
<path d="M70.9367 5.94012C70.9367 5.51079 70.9461 5.19345 70.9647 4.98812C71.0021 4.76412 71.0954 4.51212 71.2447 4.23212C71.5061 3.72812 72.2341 3.47612 73.4287 3.47612C74.7354 3.47612 75.5101 3.82145 75.7527 4.51212C75.8461 4.82945 75.8927 5.31479 75.8927 5.96812V21.5361C75.8927 21.9841 75.8741 22.3108 75.8367 22.5161C75.8181 22.7215 75.7341 22.9641 75.5847 23.2441C75.3234 23.7481 74.5954 24.0001 73.4007 24.0001C72.0941 24.0001 71.3287 23.6455 71.1047 22.9361C70.9927 22.6375 70.9367 22.1615 70.9367 21.5081V5.94012Z" fill="black"/>
<path d="M23.4529 21.57L23.4544 21.5683C25.4848 19.3818 26.5 16.739 26.5 13.6681C26.5 10.5721 25.433 7.95889 23.2983 5.86331C22.4658 5.04607 22.1044 4.39226 21.9571 3.89189C21.812 3.39912 21.8606 3.0097 21.935 2.68261C21.953 2.60355 21.9722 2.5295 21.9919 2.45316L21.9966 2.43527C22.0169 2.35652 22.0394 2.26917 22.0561 2.1855C22.0852 2.03954 22.1265 1.78191 22.0045 1.53382C21.8677 1.2553 21.6058 1.1344 21.3764 1.07689C21.1475 1.01955 20.8544 1 20.5 1C20.1044 1 19.4263 1.14259 18.6757 1.33388C17.9018 1.53109 16.9844 1.7983 16.074 2.08047C14.2614 2.64226 12.4357 3.27602 11.8022 3.54891C10.5329 4.09568 9.40787 4.84875 8.43005 5.80702C7.44272 6.77459 6.66045 7.97202 6.078 9.38896C5.49133 10.7974 5.20001 12.3095 5.20001 13.9201C5.20001 16.8876 6.24002 19.4571 8.30797 21.6031L8.30961 21.6048C10.4001 23.7538 12.9462 24.8361 15.92 24.8361C18.8957 24.8361 21.4171 23.7428 23.4529 21.57ZM19.0728 10.0799L19.076 10.0829C20.0449 11.0017 20.544 12.2258 20.544 13.8081C20.544 15.3933 20.0524 16.6068 19.1041 17.5051C18.1223 18.4353 17.0474 18.8801 15.864 18.8801C14.6844 18.8801 13.6008 18.4289 12.5993 17.4804C11.6444 16.5406 11.156 15.3224 11.156 13.7801C11.156 12.2361 11.6454 11.0283 12.5992 10.1079L12.5992 10.1079L12.6024 10.1048C13.5857 9.13878 14.6586 8.68012 15.836 8.68012C17.0164 8.68012 18.0903 9.13188 19.0728 10.0799ZM45.7238 21.57L45.7253 21.5683C47.7557 19.3818 48.771 16.739 48.771 13.6681C48.771 10.5721 47.704 7.95889 45.5692 5.86331C43.4444 3.77748 40.9212 2.72412 38.0229 2.72412C36.6652 2.72412 35.3473 3.00004 34.0731 3.54891C32.8039 4.09568 31.6788 4.84875 30.701 5.80702C29.7136 6.77464 28.9313 7.97213 28.3489 9.38915C27.7622 10.7975 27.4709 12.3096 27.4709 13.9201C27.4709 16.8876 28.511 19.4571 30.5789 21.6031L30.5805 21.6048C32.671 23.7538 35.2172 24.8361 38.1909 24.8361C41.1667 24.8361 43.688 23.7428 45.7238 21.57ZM41.3438 10.0799L41.3469 10.0829C42.3158 11.0017 42.8149 12.2258 42.8149 13.8081C42.8149 15.3933 42.3233 16.6068 41.3751 17.5051C40.3932 18.4353 39.3183 18.8801 38.1349 18.8801C36.9553 18.8801 35.8717 18.4289 34.8702 17.4804C33.9153 16.5406 33.4269 15.3224 33.4269 13.7801C33.4269 12.2361 33.9163 11.0283 34.8701 10.1079L34.8701 10.1079L34.8734 10.1048C35.8566 9.13878 36.9296 8.68012 38.1069 8.68012C39.2873 8.68012 40.3612 9.13188 41.3438 10.0799ZM53.1566 2.94812H53.1539C52.5281 2.94812 51.9856 3.01326 51.5483 3.16463C51.1083 3.31694 50.7358 3.57156 50.5275 3.97117C50.3657 4.27484 50.2479 4.56789 50.198 4.84268L50.194 4.86463L50.1919 4.88685C50.1711 5.11632 50.1619 5.46226 50.1619 5.91212V21.4801C50.1619 22.3115 50.2748 23.0144 50.5638 23.5202L50.5637 23.5202L50.5691 23.5294C50.7906 23.8984 51.1574 24.1319 51.5836 24.2721C52.0079 24.4116 52.5283 24.4721 53.1259 24.4721H58.2499C61.2394 24.4721 63.7945 23.4013 65.8859 21.2712C67.9931 19.1441 69.0539 16.5823 69.0539 13.6121C69.0539 10.6207 67.9721 8.09039 65.8183 6.05362C63.6775 4.01049 61.1763 2.97645 58.3353 2.97612C58.3348 2.97612 58.3343 2.97612 58.3339 2.97612L53.1566 2.94812ZM61.6515 10.3288L61.6515 10.3289L61.658 10.3351C62.6188 11.2454 63.0979 12.3725 63.0979 13.7521C63.0979 15.128 62.6123 16.2538 61.6348 17.1646C60.6356 18.077 59.5405 18.5161 58.3339 18.5161H56.1179V8.93212H58.3059C59.5888 8.93212 60.6963 9.39065 61.6515 10.3288ZM70.4715 4.90592L70.4685 4.9243L70.4668 4.94285C70.446 5.17196 70.4367 5.50817 70.4367 5.94012V21.5081C70.4367 22.1649 70.4901 22.7123 70.6319 23.0992C70.9688 24.1412 72.0664 24.5001 73.4007 24.5001C74.0266 24.5001 74.569 24.435 75.0063 24.2836C75.4463 24.1313 75.8188 23.8767 76.0271 23.4771C76.1878 23.1754 76.3017 22.8743 76.3324 22.5843C76.3756 22.3327 76.3927 21.9756 76.3927 21.5361V5.96812C76.3927 5.30399 76.3467 4.75966 76.2324 4.37104L76.2288 4.35861L76.2245 4.34638C75.8658 3.32556 74.7653 2.97612 73.4287 2.97612C72.8029 2.97612 72.2605 3.04126 71.8232 3.19263C71.3832 3.34494 71.0106 3.59956 70.8023 3.99917C70.6374 4.30871 70.5204 4.61256 70.4715 4.90592Z" stroke="black"/>
</g>
<defs>
<filter id="filter0_d_1_281" x="0.700012" y="0.5" width="80.1927" height="32.8362" filterUnits="userSpaceOnUse" color-interpolation-filters="sRGB">
<feFlood flood-opacity="0" result="BackgroundImageFix"/>
<feColorMatrix in="SourceAlpha" type="matrix" values="0 0 0 0 0 0 0 0 0 0 0 0 0 0 0 0 0 0 127 0" result="hardAlpha"/>
<feOffset dy="4"/>
<feGaussianBlur stdDeviation="2"/>
<feComposite in2="hardAlpha" operator="out"/>
<feColorMatrix type="matrix" values="0 0 0 0 0 0 0 0 0 0 0 0 0 0 0 0 0 0 0.25 0"/>
<feBlend mode="normal" in2="BackgroundImageFix" result="effect1_dropShadow_1_281"/>
<feBlend mode="normal" in="SourceGraphic" in2="effect1_dropShadow_1_281" result="shape"/>
</filter>
</defs>
</svg>
